<svg width="20" height="20" viewBox="0 0 20 20" fill="none" xmlns="http://www.w3.org/2000/svg">
<path d="M14.26 7.15876L11.41 9.99876L14.26 12.8388C14.3537 12.9317 14.4281 13.0423 14.4789 13.1642C14.5296 13.286 14.5558 13.4167 14.5558 13.5488C14.5558 13.6808 14.5296 13.8115 14.4789 13.9333C14.4281 14.0552 14.3537 14.1658 14.26 14.2588C14.1665 14.3514 14.0557 14.4248 13.9339 14.4745C13.8121 14.5243 13.6816 14.5495 13.55 14.5488C13.4184 14.5495 13.2879 14.5243 13.1661 14.4745C13.0442 14.4248 12.9334 14.3514 12.84 14.2588L9.99998 11.4088L7.15998 14.2588C7.06654 14.3514 6.95573 14.4248 6.83389 14.4745C6.71205 14.5243 6.58159 14.5495 6.44998 14.5488C6.31838 14.5495 6.18791 14.5243 6.06608 14.4745C5.94424 14.4248 5.83342 14.3514 5.73998 14.2588C5.64625 14.1658 5.57186 14.0552 5.52109 13.9333C5.47032 13.8115 5.44418 13.6808 5.44418 13.5488C5.44418 13.4167 5.47032 13.286 5.52109 13.1642C5.57186 13.0423 5.64625 12.9317 5.73998 12.8388L8.58998 9.99876L5.73998 7.15876C5.64674 7.06552 5.57278 6.95483 5.52232 6.83301C5.47186 6.71119 5.44589 6.58062 5.44589 6.44876C5.44589 6.3169 5.47186 6.18633 5.52232 6.06451C5.57278 5.94269 5.64674 5.832 5.73998 5.73876C5.83322 5.64552 5.94391 5.57156 6.06573 5.5211C6.18756 5.47064 6.31812 5.44467 6.44998 5.44467C6.58184 5.44467 6.71241 5.47064 6.83423 5.5211C6.95605 5.57156 7.06674 5.64552 7.15998 5.73876L9.99998 8.58876L12.84 5.73876C12.9332 5.64552 13.0439 5.57156 13.1657 5.5211C13.2876 5.47064 13.4181 5.44467 13.55 5.44467C13.6818 5.44467 13.8124 5.47064 13.9342 5.5211C14.0561 5.57156 14.1667 5.64552 14.26 5.73876C14.3532 5.832 14.4272 5.94269 14.4776 6.06451C14.5281 6.18633 14.5541 6.3169 14.5541 6.44876C14.5541 6.58062 14.5281 6.71119 14.4776 6.83301C14.4272 6.95483 14.3532 7.06552 14.26 7.15876ZM17.07 17.0688C15.184 18.8903 12.6579 19.8983 10.036 19.8755C7.414 19.8527 4.90588 18.801 3.0518 16.9469C1.19772 15.0929 0.146026 12.5847 0.123242 9.96277C0.100458 7.34081 1.1084 4.81478 2.92998 2.92876C4.816 1.10718 7.34203 0.0992369 9.96399 0.122021C12.586 0.144805 15.0941 1.19649 16.9482 3.05058C18.8022 4.90466 19.8539 7.41278 19.8767 10.0347C19.8995 12.6567 18.8916 15.1827 17.07 17.0688ZM15.66 4.33876C14.5408 3.22083 13.1153 2.45979 11.5637 2.15183C10.0121 1.84387 8.40404 2.00281 6.94275 2.60858C5.48146 3.21434 4.23256 4.23972 3.3539 5.55512C2.47524 6.87053 2.00628 8.41689 2.00628 9.99876C2.00628 11.5806 2.47524 13.127 3.3539 14.4424C4.23256 15.7578 5.48146 16.7832 6.94275 17.3889C8.40404 17.9947 10.0121 18.1537 11.5637 17.8457C13.1153 17.5377 14.5408 16.7767 15.66 15.6588C16.4098 14.9192 17.0052 14.038 17.4116 13.0663C17.818 12.0947 18.0273 11.052 18.0273 9.99876C18.0273 8.94556 17.818 7.90285 17.4116 6.93121C17.0052 5.95956 16.4098 5.07835 15.66 4.33876Z" fill="#231F20"/>
</svg>
